HIERARCHY
ROOT SimulationBone
{
	OFFSET 0.000000 0.000000 0.000000
	CHANNELS 6 Xposition Yposition Zposition Zrotation Yrotation Xrotation 
	JOINT Hips
	{
		OFFSET 0.000000 0.000000 0.000000
		CHANNELS 6 Xposition Yposition Zposition Zrotation Yrotation Xrotation 
		JOINT RightUpLeg
		{
			OFFSET 0.103462 1.857831 10.548502
			CHANNELS 3 Zrotation Yrotation Xrotation
			JOINT RightLeg
			{
				OFFSET 43.500008 -0.000027 -0.000004
				CHANNELS 3 Zrotation Yrotation Xrotation
				JOINT RightFoot
				{
					OFFSET 42.372200 0.000011 -0.000002
					CHANNELS 3 Zrotation Yrotation Xrotation
					JOINT RightToe
					{
						OFFSET 17.299999 -0.000001 -0.000002
						CHANNELS 3 Zrotation Yrotation Xrotation
						End Site
						{
							OFFSET 0.000000 0.000000 0.000000
						}
					}
				}
			}
		}
		JOINT LeftUpLeg
		{
			OFFSET 0.103458 1.857828 -10.548501
			CHANNELS 3 Zrotation Yrotation Xrotation
			JOINT LeftLeg
			{
				OFFSET 43.500038 -0.000031 0.000011
				CHANNELS 3 Zrotation Yrotation Xrotation
				JOINT LeftFoot
				{
					OFFSET 42.372257 -0.000004 0.000010
					CHANNELS 3 Zrotation Yrotation Xrotation
					JOINT LeftToe
					{
						OFFSET 17.299994 -0.000005 0.000004
						CHANNELS 3 Zrotation Yrotation Xrotation
						End Site
						{
							OFFSET 0.000000 0.000000 0.000000
						}
					}
				}
			}
		}
		JOINT Spine
		{
			OFFSET 6.901966 -2.603733 0.000000
			CHANNELS 3 Zrotation Yrotation Xrotation
			JOINT Spine1
			{
				OFFSET 12.588101 0.000002 0.000000
				CHANNELS 3 Zrotation Yrotation Xrotation
				JOINT Spine2
				{
					OFFSET 12.343201 0.000004 -0.000002
					CHANNELS 3 Zrotation Yrotation Xrotation
					JOINT Neck
					{
						OFFSET 25.832895 -0.000004 0.000002
						CHANNELS 3 Zrotation Yrotation Xrotation
						JOINT Head
						{
							OFFSET 11.766604 0.000011 0.000001
							CHANNELS 3 Zrotation Yrotation Xrotation
							End Site
							{
								OFFSET 0.000000 0.000000 0.000000
							}
						}
					}
					JOINT RightShoulder
					{
						OFFSET 19.745903 -1.480368 6.000108
						CHANNELS 3 Zrotation Yrotation Xrotation
						JOINT RightArm
						{
							OFFSET 11.284126 -0.000007 -0.000022
							CHANNELS 3 Zrotation Yrotation Xrotation
							JOINT RightForeArm
							{
								OFFSET 33.000053 0.000001 0.000028
								CHANNELS 3 Zrotation Yrotation Xrotation
								JOINT RightHand
								{
									OFFSET 25.200005 0.000019 0.000013
									CHANNELS 3 Zrotation Yrotation Xrotation
									End Site
									{
										OFFSET 0.000000 0.000000 0.000000
									}
								}
							}
						}
					}
					JOINT LeftShoulder
					{
						OFFSET 19.746094 -1.480373 -6.000072
						CHANNELS 3 Zrotation Yrotation Xrotation
						JOINT LeftArm
						{
							OFFSET 11.284138 -0.000017 -0.000010
							CHANNELS 3 Zrotation Yrotation Xrotation
							JOINT LeftForeArm
							{
								OFFSET 33.000092 0.000013 0.000009
								CHANNELS 3 Zrotation Yrotation Xrotation
								JOINT LeftHand
								{
									OFFSET 25.199776 0.000139 0.000415
									CHANNELS 3 Zrotation Yrotation Xrotation
									End Site
									{
										OFFSET 0.000000 0.000000 0.000000
									}
								}
							}
						}
					}
				}
			}
		}
	}
}
MOTION
Frames: 5
Frame Time: 0.033333
-19.966616 0.000000 89.373724 0.000000 39.932087 0.000000 -4.628263 87.707550 -2.618894 92.476559 -6.167548 178.789734 170.561872 -9.773607 168.760013 -22.658832 -4.035423 -5.561208 74.181243 0.722505 -11.230148 21.454558 0.003112 0.000018 150.263369 14.096100 176.816959 -54.589095 0.474929 10.787658 77.803170 -5.719727 7.490527 21.454550 -0.003089 0.000000 11.420173 -1.213212 -2.393910 12.876087 -2.152055 -4.908886 12.559012 -2.181759 -4.895847 9.397728 3.576076 -1.107253 -6.371600 -4.753189 0.434435 174.518778 -73.926614 4.198700 -55.540756 44.177103 20.905266 -52.559159 -15.960269 1.929462 2.291809 0.184506 20.509185 155.604345 80.688392 -23.146126 -10.654830 -44.709295 -28.587443 -28.598292 10.625243 -0.921166 12.443804 -3.332995 -56.253646 
-19.027617 0.000000 92.973086 0.000000 37.199457 0.000000 -3.743621 87.277496 -2.695930 91.741574 -6.236156 178.658553 172.675488 -11.742490 169.060528 -18.262604 -4.616253 -7.444023 71.494998 1.106366 -13.525669 21.454553 0.003121 0.000018 154.325693 17.629393 176.775842 -51.447099 -1.026284 11.458573 77.654074 -6.468056 6.241479 21.454558 -0.003095 0.000004 10.719594 -1.285798 -2.031934 11.472071 -2.363528 -4.182291 11.154581 -2.388860 -4.167976 8.934973 4.808749 -0.166059 -5.677292 -6.125982 1.859960 177.718695 -72.837335 0.943430 -50.063449 46.043357 22.562381 -46.651814 -16.101469 1.747791 3.712961 1.235425 19.430181 157.996305 80.249334 -20.746925 -13.151987 -45.611016 -22.348101 -33.189054 11.840463 -1.090327 9.338770 0.383293 -48.832379 
-17.957475 0.000000 96.353614 0.000000 34.587484 0.000000 -3.069942 86.530670 -2.389623 91.100528 -5.702606 178.548695 174.695393 -14.756106 168.848970 -14.771824 -5.159824 -8.866689 69.292365 1.104672 -15.904599 21.454562 0.003093 0.000017 158.787910 19.968992 178.426165 -47.130252 -2.740434 12.444955 77.398037 -6.887261 7.124858 21.454553 -0.003092 -0.000001 10.114530 -1.181998 -1.619852 10.250510 -2.215715 -3.338666 9.932755 -2.235961 -3.325246 8.468981 5.541458 0.714753 -5.578837 -6.964559 3.068063 -179.362803 -71.569604 -2.031496 -43.656920 47.279871 23.469795 -41.296577 -15.939776 1.581824 5.013720 1.338099 18.915811 160.367323 80.597926 -18.329197 -14.296843 -47.323758 -19.389416 -41.996347 13.270376 -1.397810 7.431068 2.587790 -40.695712 
-16.760684 0.000000 99.525963 0.000000 32.112521 0.000000 -2.731241 85.666962 -1.551812 90.515267 -4.051950 177.925790 175.646224 -19.412007 167.407622 -14.266163 -5.208289 -9.491089 68.332115 0.510803 -18.613507 21.454562 0.003099 0.000015 162.550074 19.986098 -179.421488 -43.633516 -3.634014 9.991763 79.779362 -2.920131 16.829671 21.454550 -0.003091 -0.000001 9.685528 -0.934278 -1.102641 9.377015 -1.776085 -2.277584 9.059027 -1.789941 -2.266831 7.535048 6.761441 1.712722 -5.339676 -7.807549 4.466312 -174.680490 -70.441319 -6.838824 -37.239240 47.775445 22.660527 -36.785432 -15.903892 1.462923 6.061270 0.881363 18.455521 164.439878 80.190109 -14.220563 -14.717183 -48.544706 -17.514150 -53.768800 13.893937 -1.801299 5.068568 3.664308 -35.296983 
-15.441740 0.000000 102.500783 0.000000 29.787030 0.000000 -2.553169 85.099792 -0.451953 90.203604 -0.740158 177.924819 176.003989 -25.235792 166.746692 -14.921829 -4.024602 -10.106820 67.376230 -0.352449 -21.907333 21.454558 0.003123 0.000019 165.326013 17.490806 -176.736404 -40.140062 -0.323270 5.175860 86.442683 0.021088 19.584442 21.454553 -0.003091 -0.000000 9.572848 -0.338758 -0.740348 9.137035 -0.617963 -1.505118 8.819040 -0.627177 -1.501367 6.460303 8.748869 2.878153 -5.486577 -9.352577 6.359064 -172.219614 -69.477395 -9.370976 -29.814011 47.441920 19.232242 -33.697490 -15.652120 1.374829 6.975679 -1.778587 16.784129 169.678291 79.173599 -8.942017 -16.268216 -49.779259 -13.790484 -66.298413 12.964545 -2.201418 1.350486 3.787148 -36.718475 
